<svg width="62" height="48" viewBox="0 0 62 48" fill="none" xmlns="http://www.w3.org/2000/svg">
<path d="M62 34.6667C62 52.1558 48.1208 26 31 26C13.8792 26 0 52.1558 0 34.6667C0 17.1777 13.8792 0 31 0C48.1208 0 62 17.1777 62 34.6667Z" fill="#00AEB7"/>
<ellipse cx="31.5" cy="37" rx="27.5" ry="7" fill="#FFBE3B"/>
<path d="M32 47.5L57 18.25H5L32 47.5Z" fill="#FF7212"/>
<path d="M37.94 32.958H48.604V37H32.393L37.94 32.958ZM15.537 21.477C15.537 19.327 15.9383 17.306 16.741 15.414C17.5723 13.4933 18.719 11.802 20.181 10.34C21.643 8.84933 23.32 7.68833 25.212 6.857C27.1327 5.997 29.1967 5.567 31.404 5.567C33.5827 5.567 35.618 5.997 37.51 6.857C39.4307 7.68833 41.122 8.84933 42.584 10.34C44.0747 11.802 45.2357 13.4933 46.067 15.414C46.8983 17.306 47.314 19.327 47.314 21.477C47.314 23.6843 46.8983 25.7483 46.067 27.669C45.2357 29.5897 44.0747 31.281 42.584 32.743C41.122 34.1763 39.4307 35.3087 37.51 36.14C35.618 36.9427 33.5827 37.344 31.404 37.344C29.1967 37.344 27.1327 36.9427 25.212 36.14C23.32 35.3373 21.643 34.2193 20.181 32.786C18.719 31.3527 17.5723 29.6757 16.741 27.755C15.9383 25.8343 15.537 23.7417 15.537 21.477ZM19.837 21.52C19.837 23.154 20.138 24.6877 20.74 26.121C21.342 27.5257 22.1733 28.7727 23.234 29.862C24.2947 30.9513 25.5273 31.797 26.932 32.399C28.3367 33.001 29.856 33.302 31.49 33.302C33.0953 33.302 34.6003 33.001 36.005 32.399C37.4097 31.797 38.628 30.9513 39.66 29.862C40.692 28.7727 41.509 27.5257 42.111 26.121C42.713 24.6877 43.014 23.1397 43.014 21.477C43.014 19.8717 42.713 18.3523 42.111 16.919C41.509 15.4857 40.6777 14.2387 39.617 13.178C38.5563 12.0887 37.3237 11.243 35.919 10.641C34.5143 10.0103 33.0093 9.695 31.404 9.695C29.77 9.695 28.2507 10.0103 26.846 10.641C25.4413 11.243 24.2087 12.0887 23.148 13.178C22.0873 14.2673 21.2703 15.5287 20.697 16.962C20.1237 18.3953 19.837 19.9147 19.837 21.52Z" fill="white"/>
</svg>
