<svg width="189" height="48" viewBox="0 0 189 48" fill="none" xmlns="http://www.w3.org/2000/svg">
<path d="M62 34.6667C62 52.1558 48.1208 26 31 26C13.8792 26 0 52.1558 0 34.6667C0 17.1777 13.8792 0 31 0C48.1208 0 62 17.1777 62 34.6667Z" fill="#00AEB7"/>
<ellipse cx="31.5" cy="37" rx="27.5" ry="7" fill="#FFBE3B"/>
<path d="M68.39 37.63C67.21 37.63 66.22 37.27 65.42 36.55C64.62 35.81 64.2 34.86 64.16 33.7V23.89H68.36V32.14C68.4 32.72 68.55 33.19 68.81 33.55C69.07 33.89 69.51 34.06 70.13 34.06C70.75 34.06 71.28 33.85 71.72 33.43C72.18 33.01 72.53 32.44 72.77 31.72C73.03 30.98 73.16 30.15 73.16 29.23V23.89H77.36V37H73.55L73.22 34.6L73.28 34.87C72.98 35.41 72.6 35.89 72.14 36.31C71.68 36.73 71.13 37.05 70.49 37.27C69.87 37.51 69.17 37.63 68.39 37.63ZM81.6795 23.89H85.8795V37H81.6795V23.89ZM81.5895 19.24C81.5895 18.62 81.8295 18.11 82.3095 17.71C82.8095 17.31 83.3395 17.11 83.8995 17.11C84.4595 17.11 84.9695 17.31 85.4295 17.71C85.9095 18.11 86.1495 18.62 86.1495 19.24C86.1495 19.86 85.9095 20.37 85.4295 20.77C84.9695 21.15 84.4595 21.34 83.8995 21.34C83.3395 21.34 82.8095 21.15 82.3095 20.77C81.8295 20.37 81.5895 19.86 81.5895 19.24ZM101.335 35.83C100.755 36.29 100.025 36.66 99.1449 36.94C98.2849 37.22 97.4349 37.36 96.5949 37.36C95.0949 37.36 93.7849 37.09 92.6649 36.55C91.5649 35.99 90.7049 35.2 90.0849 34.18C89.4849 33.14 89.1849 31.89 89.1849 30.43C89.1849 28.97 89.5149 27.73 90.1749 26.71C90.8349 25.67 91.6949 24.88 92.7549 24.34C93.8349 23.8 94.9649 23.53 96.1449 23.53C97.3249 23.53 98.3449 23.69 99.2049 24.01C100.085 24.33 100.835 24.75 101.455 25.27L99.4149 27.97C99.1349 27.75 98.7449 27.53 98.2449 27.31C97.7649 27.07 97.1949 26.95 96.5349 26.95C95.9549 26.95 95.4249 27.1 94.9449 27.4C94.4649 27.7 94.0849 28.11 93.8049 28.63C93.5249 29.15 93.3849 29.75 93.3849 30.43C93.3849 31.07 93.5349 31.66 93.8349 32.2C94.1349 32.74 94.5449 33.17 95.0649 33.49C95.6049 33.79 96.2349 33.94 96.9549 33.94C97.4149 33.94 97.8349 33.88 98.2149 33.76C98.6149 33.62 98.9549 33.43 99.2349 33.19L101.335 35.83ZM104.56 37V13.33H108.76V37H104.56ZM112.09 28.09L118.03 37H113.14L109.33 30.49L112.09 28.09ZM107.5 33.37L107.08 29.38L115 23.56L117.55 25.81L107.5 33.37ZM133.417 20.26C132.577 19.8 131.717 19.42 130.837 19.12C129.977 18.82 129.167 18.67 128.407 18.67C127.467 18.67 126.727 18.86 126.187 19.24C125.647 19.62 125.377 20.19 125.377 20.95C125.377 21.47 125.577 21.94 125.977 22.36C126.397 22.76 126.927 23.12 127.567 23.44C128.227 23.76 128.907 24.05 129.607 24.31C130.247 24.55 130.877 24.84 131.497 25.18C132.137 25.5 132.707 25.91 133.207 26.41C133.707 26.89 134.107 27.5 134.407 28.24C134.707 28.96 134.857 29.85 134.857 30.91C134.857 32.03 134.567 33.07 133.987 34.03C133.407 34.99 132.557 35.77 131.437 36.37C130.317 36.95 128.937 37.24 127.297 37.24C126.457 37.24 125.597 37.16 124.717 37C123.857 36.82 123.007 36.56 122.167 36.22C121.327 35.86 120.517 35.41 119.737 34.87L121.657 31.48C122.177 31.86 122.737 32.2 123.337 32.5C123.957 32.78 124.577 33 125.197 33.16C125.817 33.32 126.387 33.4 126.907 33.4C127.427 33.4 127.947 33.33 128.467 33.19C129.007 33.03 129.447 32.77 129.787 32.41C130.147 32.05 130.327 31.55 130.327 30.91C130.327 30.47 130.177 30.07 129.877 29.71C129.597 29.35 129.207 29.02 128.707 28.72C128.227 28.42 127.697 28.16 127.117 27.94C126.437 27.68 125.737 27.38 125.017 27.04C124.297 26.7 123.617 26.29 122.977 25.81C122.357 25.31 121.847 24.7 121.447 23.98C121.067 23.24 120.877 22.34 120.877 21.28C120.877 20 121.157 18.89 121.717 17.95C122.297 17.01 123.107 16.27 124.147 15.73C125.187 15.17 126.387 14.86 127.747 14.8C129.527 14.8 130.967 15.01 132.067 15.43C133.187 15.85 134.187 16.35 135.067 16.93L133.417 20.26ZM144.878 37.36C143.278 37.36 141.918 37.06 140.798 36.46C139.698 35.86 138.858 35.03 138.278 33.97C137.698 32.91 137.408 31.69 137.408 30.31C137.408 28.99 137.748 27.8 138.428 26.74C139.108 25.68 140.018 24.84 141.158 24.22C142.298 23.58 143.568 23.26 144.968 23.26C146.848 23.26 148.388 23.81 149.588 24.91C150.808 25.99 151.598 27.56 151.958 29.62L141.758 32.86L140.828 30.58L148.208 28.09L147.338 28.48C147.178 27.96 146.888 27.51 146.468 27.13C146.068 26.73 145.458 26.53 144.638 26.53C144.018 26.53 143.468 26.68 142.988 26.98C142.528 27.26 142.168 27.67 141.908 28.21C141.668 28.73 141.548 29.35 141.548 30.07C141.548 30.89 141.698 31.58 141.998 32.14C142.298 32.68 142.708 33.09 143.228 33.37C143.748 33.65 144.328 33.79 144.968 33.79C145.428 33.79 145.868 33.71 146.288 33.55C146.728 33.39 147.158 33.18 147.578 32.92L149.438 36.04C148.738 36.44 147.978 36.76 147.158 37C146.358 37.24 145.598 37.36 144.878 37.36ZM155.01 13.33H159.21V37H155.01V13.33ZM163.535 13.33H167.735V37H163.535V13.33Z" fill="#00AEB7"/>
<path d="M32 47.5L57 18.25H5L32 47.5Z" fill="#FF7212"/>
<path d="M37.94 32.958H48.604V37H32.393L37.94 32.958ZM15.537 21.477C15.537 19.327 15.9383 17.306 16.741 15.414C17.5723 13.4933 18.719 11.802 20.181 10.34C21.643 8.84933 23.32 7.68833 25.212 6.857C27.1327 5.997 29.1967 5.567 31.404 5.567C33.5827 5.567 35.618 5.997 37.51 6.857C39.4307 7.68833 41.122 8.84933 42.584 10.34C44.0747 11.802 45.2357 13.4933 46.067 15.414C46.8983 17.306 47.314 19.327 47.314 21.477C47.314 23.6843 46.8983 25.7483 46.067 27.669C45.2357 29.5897 44.0747 31.281 42.584 32.743C41.122 34.1763 39.4307 35.3087 37.51 36.14C35.618 36.9427 33.5827 37.344 31.404 37.344C29.1967 37.344 27.1327 36.9427 25.212 36.14C23.32 35.3373 21.643 34.2193 20.181 32.786C18.719 31.3527 17.5723 29.6757 16.741 27.755C15.9383 25.8343 15.537 23.7417 15.537 21.477ZM19.837 21.52C19.837 23.154 20.138 24.6877 20.74 26.121C21.342 27.5257 22.1733 28.7727 23.234 29.862C24.2947 30.9513 25.5273 31.797 26.932 32.399C28.3367 33.001 29.856 33.302 31.49 33.302C33.0953 33.302 34.6003 33.001 36.005 32.399C37.4097 31.797 38.628 30.9513 39.66 29.862C40.692 28.7727 41.509 27.5257 42.111 26.121C42.713 24.6877 43.014 23.1397 43.014 21.477C43.014 19.8717 42.713 18.3523 42.111 16.919C41.509 15.4857 40.6777 14.2387 39.617 13.178C38.5563 12.0887 37.3237 11.243 35.919 10.641C34.5143 10.0103 33.0093 9.695 31.404 9.695C29.77 9.695 28.2507 10.0103 26.846 10.641C25.4413 11.243 24.2087 12.0887 23.148 13.178C22.0873 14.2673 21.2703 15.5287 20.697 16.962C20.1237 18.3953 19.837 19.9147 19.837 21.52Z" fill="white"/>
</svg>
